<svg width="1200" height="460" viewBox="0 0 1200 460" fill="none" xmlns="http://www.w3.org/2000/svg" role="img" aria-labelledby="title desc">
  <title id="title">MealCircuit product identity</title>
  <desc id="desc">A dark local-first nutrition workspace banner with a circular circuit motif connecting capture, context, and calibration.</desc>
  <defs>
    <linearGradient id="bg" x1="82" y1="34" x2="1118" y2="426" gradientUnits="userSpaceOnUse">
      <stop stop-color="#0D1B17"/>
      <stop offset="0.52" stop-color="#07110F"/>
      <stop offset="1" stop-color="#0E1917"/>
    </linearGradient>
    <linearGradient id="loop" x1="413" y1="81" x2="787" y2="379" gradientUnits="userSpaceOnUse">
      <stop stop-color="#D4FF73"/>
      <stop offset="0.48" stop-color="#59E6B5"/>
      <stop offset="1" stop-color="#2EA98B"/>
    </linearGradient>
    <linearGradient id="warm" x1="535" y1="164" x2="690" y2="311" gradientUnits="userSpaceOnUse">
      <stop stop-color="#FFCB74"/>
      <stop offset="1" stop-color="#FF7A59"/>
    </linearGradient>
    <radialGradient id="glow" cx="0" cy="0" r="1" gradientUnits="userSpaceOnUse" gradientTransform="translate(600 230) rotate(90) scale(216 360)">
      <stop stop-color="#55DFAF" stop-opacity="0.18"/>
      <stop offset="1" stop-color="#55DFAF" stop-opacity="0"/>
    </radialGradient>
    <pattern id="grid" width="32" height="32" patternUnits="userSpaceOnUse">
      <path d="M32 0H0V32" stroke="#CFFFEF" stroke-opacity="0.035"/>
    </pattern>
    <filter id="shadow" x="354" y="34" width="492" height="392" filterUnits="userSpaceOnUse" color-interpolation-filters="sRGB">
      <feDropShadow dx="0" dy="18" stdDeviation="26" flood-color="#000" flood-opacity="0.34"/>
    </filter>
  </defs>

  <rect width="1200" height="460" rx="28" fill="url(#bg)"/>
  <rect width="1200" height="460" rx="28" fill="url(#grid)"/>
  <rect width="1200" height="460" rx="28" fill="url(#glow)"/>
  <rect x="0.75" y="0.75" width="1198.5" height="458.5" rx="27.25" stroke="#B9FFE7" stroke-opacity="0.14" stroke-width="1.5"/>

  <g opacity="0.72">
    <path d="M0 102H158L190 134H338" stroke="#58DDAF" stroke-opacity="0.22"/>
    <circle cx="190" cy="134" r="4" fill="#D4FF73"/>
    <path d="M862 327H1014L1050 291H1200" stroke="#58DDAF" stroke-opacity="0.22"/>
    <circle cx="1014" cy="327" r="4" fill="#D4FF73"/>
    <path d="M82 380H242L268 354H367" stroke="#FFB46B" stroke-opacity="0.18"/>
    <path d="M833 108H934L962 136H1118" stroke="#FFB46B" stroke-opacity="0.18"/>
  </g>

  <g filter="url(#shadow)">
    <circle cx="600" cy="230" r="162" fill="#091713" stroke="#D3FFEE" stroke-opacity="0.12" stroke-width="2"/>
    <circle cx="600" cy="230" r="137" stroke="#D3FFEE" stroke-opacity="0.08" stroke-width="18"/>

    <path d="M506 130C546 92 605 78 659 94C713 110 755 153 769 207" stroke="url(#loop)" stroke-width="15" stroke-linecap="round"/>
    <path d="M770 254C760 308 721 353 668 372C615 391 555 380 512 344" stroke="url(#loop)" stroke-width="15" stroke-linecap="round"/>
    <path d="M479 308C454 270 449 223 463 181" stroke="url(#loop)" stroke-width="15" stroke-linecap="round"/>

    <circle cx="506" cy="130" r="10" fill="#D4FF73" stroke="#1C352D" stroke-width="5"/>
    <circle cx="770" cy="254" r="10" fill="#58E3B3" stroke="#1C352D" stroke-width="5"/>
    <circle cx="479" cy="308" r="10" fill="#FFB46B" stroke="#1C352D" stroke-width="5"/>

    <circle cx="600" cy="230" r="91" fill="#0E211B" stroke="#BEFFE8" stroke-opacity="0.18" stroke-width="2"/>
    <path d="M549 232C565 232 569 208 585 208C601 208 605 253 621 253C637 253 641 220 657 220" stroke="url(#warm)" stroke-width="10" stroke-linecap="round" stroke-linejoin="round"/>
    <circle cx="549" cy="232" r="5" fill="#FFCB74"/>
    <circle cx="657" cy="220" r="5" fill="#FF7A59"/>
    <path d="M550 278H650" stroke="#D8FFF1" stroke-opacity="0.16" stroke-width="2" stroke-linecap="round"/>
    <path d="M570 294H630" stroke="#D8FFF1" stroke-opacity="0.1" stroke-width="2" stroke-linecap="round"/>
  </g>

  <g font-family="Inter, ui-sans-serif, system-ui, -apple-system, BlinkMacSystemFont, Segoe UI, sans-serif">
    <g transform="translate(52 205)">
      <rect width="226" height="50" rx="25" fill="#10251E" stroke="#B9FFE7" stroke-opacity="0.12"/>
      <circle cx="27" cy="25" r="6" fill="#D4FF73"/>
      <text x="47" y="30" fill="#D9F5EB" font-size="14" font-weight="650" letter-spacing="2">01  CAPTURE</text>
    </g>
    <g transform="translate(922 130)">
      <rect width="226" height="50" rx="25" fill="#10251E" stroke="#B9FFE7" stroke-opacity="0.12"/>
      <circle cx="27" cy="25" r="6" fill="#59E6B5"/>
      <text x="47" y="30" fill="#D9F5EB" font-size="14" font-weight="650" letter-spacing="2">02  CONTEXT</text>
    </g>
    <g transform="translate(922 280)">
      <rect width="226" height="50" rx="25" fill="#10251E" stroke="#B9FFE7" stroke-opacity="0.12"/>
      <circle cx="27" cy="25" r="6" fill="#FF9B62"/>
      <text x="47" y="30" fill="#D9F5EB" font-size="14" font-weight="650" letter-spacing="2">03  CALIBRATE</text>
    </g>
    <text x="52" y="62" fill="#D4FF73" font-size="12" font-weight="700" letter-spacing="3.5">LOCAL-FIRST NUTRITION WORKSPACE</text>
    <text x="52" y="91" fill="#D9F5EB" fill-opacity="0.52" font-size="13" letter-spacing="0.8">Evidence in. Context applied. Better next decisions out.</text>
    <text x="1148" y="412" text-anchor="end" fill="#D9F5EB" fill-opacity="0.42" font-size="12" font-weight="600" letter-spacing="2">MEALCIRCUIT / 0.1</text>
  </g>
</svg>
